<?xml version="1.0" encoding="iso-8859-1"?>
<!-- Generator: Adobe Illustrator 19.0.0, SVG Export Plug-In . SVG Version: 6.00 Build 0)  -->
<svg version="1.1" id="Capa_1" xmlns="http://www.w3.org/2000/svg" xmlns:xlink="http://www.w3.org/1999/xlink" x="0px" y="0px"
	 viewBox="0 0 512 512" style="enable-background:new 0 0 512 512;" xml:space="preserve">
<circle style="fill:#FF4C5B;" cx="256" cy="256" r="256"/>
<path style="fill:#FC1939;" d="M512,256c0-3.622-0.094-7.221-0.243-10.807l-93.186-93.186l-39.412,59.398L278.533,110.78
	L205.952,256L62.827,354.261l154.888,154.888C230.205,511.021,242.988,512,256,512C397.385,512,512,397.385,512,256z"/>
<rect x="107.93" y="166.51" style="fill:#E5C16B;" width="296.14" height="169.01"/>
<rect x="255.95" y="166.51" style="fill:#CE9D46;" width="148.12" height="169.01"/>
<rect x="107.93" y="223.09" style="fill:#D59134;" width="296.14" height="55.848"/>
<rect x="255.95" y="223.09" style="fill:#B27429;" width="148.12" height="55.848"/>
<circle style="fill:#FFCABC;" cx="256" cy="131.05" r="30.31"/>
<path style="fill:#FFA899;" d="M256,100.739c-0.016,0-0.032,0.001-0.048,0.001v60.622c0.016,0,0.032,0.001,0.048,0.001
	c16.741,0,30.312-13.571,30.312-30.312S272.741,100.739,256,100.739z"/>
<polygon style="fill:#FFFFFF;" points="418.571,335.522 389.571,335.522 389.571,181.008 107.929,181.008 107.929,152.008 
	418.571,152.008 "/>
<polygon style="fill:#E0E0E0;" points="255.952,152.008 255.952,181.008 389.571,181.008 389.571,335.522 418.571,335.522 
	418.571,152.008 "/>
<rect x="62.827" y="318.99" style="fill:#FEDB41;" width="386.35" height="35.27"/>
<rect x="255.95" y="318.99" style="fill:#FCBF29;" width="193.22" height="35.27"/>
<g>
</g>
<g>
</g>
<g>
</g>
<g>
</g>
<g>
</g>
<g>
</g>
<g>
</g>
<g>
</g>
<g>
</g>
<g>
</g>
<g>
</g>
<g>
</g>
<g>
</g>
<g>
</g>
<g>
</g>
</svg>
