<svg id="Layer_1" enable-background="new 0 0 140 140" height="512" viewBox="0 0 140 140" width="512" xmlns="http://www.w3.org/2000/svg" xmlns:x="http://ns.adobe.com/Extensibility/1.0/" xmlns:i="http://ns.adobe.com/AdobeIllustrator/10.0/" xmlns:graph="http://ns.adobe.com/Graphs/1.0/"><circle cx="70" cy="70" fill="#4e5366" r="64"/><path d="m129.8422241 92.7009811-55.836792-55.8281211c-.1199951-.2199707-.3500366-.3699951-.6199951-.3699951h-.0300293c-.539978.0200195-1.039978.0900269-1.5100098.1900024l-1.3299561-1.289978c-.2200317-.2000122-.4800415-.3900146-.75-.5500488-.2600098-.1499634-.5400391-.2699585-.8300171-.3799438-1.8400269-.7000122-4.3900146-.6500244-6.1099854.2999878l-27.0400389 14.9699706c-1.0199585.5700073-1.5099487 1.3200073-1.5 2.0499878l-.0199585 5.7900391c.0299683.039978.0700073.0700073.0999756.0999756l-.0700073 24.4299889c0 .0400391-.0199585.0599976-.0199585.0900269l-.1000366 3.6599731c0 .5599976.2900391 1.1199951.8400269 1.6000366l45.6377563 45.637764c22.6400756-3.7953492 41.2435302-19.467476 49.1890258-40.399666z" opacity=".1"/><g enable-background="new"><path d="m104.8354492 99.5628586-.1000366 3.6600342c0 1.1499634-2.0800171 2.1099854-4.2000122 1.5699463l-63.4400025-16.3199463c-.5699463-.1500244-1.0699463-.3500366-1.4799805-.5900269-.9400024-.539978-1.4400024-1.2800293-1.4400024-2.0200195l.1000366-3.6599731c0 .7399902.5 1.4799805 1.4400024 2.0200195.4099731.2399902.8999634.4400024 1.4799805.5899658l63.4299927 16.3200073c2.1199952.539978 4.2000123-.4199829 4.210022-1.5700073z" fill="#af7c64"/><path d="m69.6536636 68.7087173c.2819672.1627884.5352402.3488541.7512131.5572891l33.9822769 29.4037933c1.5076294 1.4475937-1.0922165 3.1464005-3.756897 2.4651947l-63.4379043-16.3235244c-.574585-.1481171-1.0694122-.3483887-1.4799004-.5853806-1.8665009-1.0776291-1.9882469-2.9141541.0719376-4.0554352l27.0314751-11.5091705c1.9620819-1.0884475 5.0068054-1.0098953 6.837799.0472336z" fill="#ee905d"/></g><g enable-background="new"><path d="m100.7374802 70.7460251 2.423973 17.7548218-2.5200653 13.6750793-63.4379043-16.3235168-1.7690582-13.5163803 1.8651504-17.9135209z" fill="#e6e9ef"/><path d="m37.2954826 54.419117-.0115585 5.3707886-.0809326 26.0638847c-.577507-.1501617-1.0740852-.346489-1.4784546-.5890732-.9471931-.5428238-1.4437714-1.2820511-1.432209-2.0212784l.0693665-25.6249733.0231247-5.7981377c0 .7391586.4965782 1.4783859 1.432209 2.0212822.4156494.2309456.9123687.4273491 1.4784545.5775071z" fill="#d9dde6"/><path d="m104.9332123 69.1801987v.1617203l-.0115585 4.1580353-.0807953 27.1034241c0 1.1550217-2.0790863 2.1136322-4.2044144 1.5708084l.080925-26.1563034.0231247-5.2668762c.8662643.2194519 1.7325287.1848373 2.4486313-.0114899.0692291-.0115662.127037-.0346832.184845-.0578079.5890656-.1847763 1.0625229-.4850922 1.3397141-.8547058.0693665-.0923462.1271744-.1963272.1617203-.3118057.0346831-.1039812.0578078-.2194521.0578078-.3349992z" fill="#d9dde6"/><path d="m104.9332123 69.3419189c-.0115585.0577393-.0346832.1154709-.0578079.1732788-.0345459.1154785-.0923538.2194595-.1617203.3118057-.2771912.3696136-.7506485.6699295-1.3397141.8547058-.0578079.0231247-.1156158.0462418-.184845.0578079-.7161026.1963272-1.5823669.2309418-2.4486313.0114899l-63.4450111-16.33189c-.5660858-.1501579-1.0628052-.3465614-1.4784546-.577507-.9356308-.5428963-1.432209-1.2821236-1.432209-2.0212822-.0115623-.7276649.4734535-1.4784546 1.5014381-2.0443993l27.03899-14.9690475c1.9634705-1.0857201 5.0011749-1.0048599 6.8376083.0462456.2771912.1616478.5312653.346489.7507935.5543861l33.9806519 32.8718071c.3696824.3580551.4965744.7161102.4389115 1.0625991z" fill="#e6e9ef"/></g><path d="m104.9331207 69.3419342c.0577545-.3465042-.069191-.7045898-.4388504-1.0626068l-34.0772171-32.9029923c-.2196884-.2078476-.4737167-.392746-.7508926-.5543556-1.8364487-1.0510902-4.8740921-1.1319962-6.8376236-.0462379l-27.0389786 14.9690475c-1.0279388.5659332-1.51297 1.3166924-1.5013924 2.0443687l-.0231514 5.798172c.7506294.8777733 1.7787666 1.6054497 2.9222069 2.1714478 1.8133621.9125023 3.9269905 1.4552803 5.7519989 1.651619 2.6795616.2887573 5.4863319.5429115 7.7385483 2.0328598.5659332 4.7933235-1.2987366 9.5314522-.7212296 14.3247795.2656708 2.2523499.8894196 4.966568 3.0492859 5.6364975 2.3100357.7276688 4.5508728-1.6054535 5.0589905-3.9616623.4966049-2.3678513.6315765-4.8219986.8971748-7.2244415.15839-1.3662262 1.3266945-2.7880249 2.7494164-3.7515106 1.1233139-.7607574 2.6590385.250412 2.4135628 1.5848007-.0989227.5377121-.1351013 1.0807495-.0720901 1.6268234.1616745 1.513031 1.3397141 3.0261307 2.8643951 3.0030441 1.3860168-.0230865 2.483284-1.32827 2.7604599-2.6796265.1283951-.6055984.1311569-1.2202682.0653839-1.8340225-.1548386-1.4435043 1.0479355-2.7234955 2.4769745-2.4674988 2.9744949.5328445 5.6577377 3.1151276 5.7969208 6.1957245.0923462 1.9519501-.6814346 3.8230667-1.3051147 5.6827316-.6121063 1.8595428-1.0858231 3.9039764-.4159698 5.7403564.9099426 2.467308 4.6194153 4.0492706 6.1267242.513382.4320145-1.0135345.4876633-2.1440811.2794189-3.2259598-.4218903-2.1932144-.3138809-5.8469162 2.1179657-6.4582291 1.9866791-.4966736 3.707634 1.7094345 3.8575974 3.7422256.1619415 2.0444336-.6235504 4.0425644-.6580124 6.086998-.0463104 2.0443649 1.1434402 4.4467468 3.1877365 4.5161438 1.8133011.0692596 3.1761703-1.801918 3.3727036-3.6037064.1961441-1.801857-.4159622-3.5805588-.7393112-5.3708344-.3233566-1.7787628-.2887573-3.8230667.9470291-5.1513977.7507629-.8200226 1.9173584-1.2474365 3.0379105-1.1087799.9584808.1155014 1.8246078.6236801 2.7949295.7276077h.0547256c1.5407257 0 3.0096207-.7410278 3.8545761-2.0295029.1043167-.1590424.3212433-.460228.4166183-.6297989z" fill="#f46060"/><g fill="#d9dde6" opacity=".25"><path d="m37.0588989 49.2235146c.0462456-.027916.0860062-.0548477.1333771-.0829735 0 0-.0510368.0294685-.1333771.0829735z"/><path d="m39.8469467 53.8320351c-6.5384254-2.1764412-2.8263969-4.5247498-2.0815315-5.008709-1.0965385.6620598-2.1719475.9032402-2.7728157 1.6190071-1.430912 1.7045212-.7469978 3.9647865 4.5957642 5.6104355 7.8756485 2.4258118 61.1491165 14.3653145 61.1491165 14.3653145s-53.6296616-14.1690712-60.8905335-16.5860481z"/></g><circle cx="67.54" cy="48.17" fill="#ef3e3e" r="7.916"/><path d="m69.1936951 53.2585258c-4.3664246 0-7.9152832-3.5398674-7.9152832-7.9152794 0-.8714638.1437836-1.7070618.4043121-2.4887047-1.2757721 1.4015694-2.057415 3.2703476-2.057415 5.318821 0 4.3664207 3.5398674 7.9152794 7.9152794 7.9152794 3.503891 0 6.4777908-2.2730865 7.5109711-5.4266281-1.4464798 1.5992546-3.5308762 2.5965118-5.8578644 2.5965118z" fill="#e33636"/><path d="m68.2052002 44.010006c-.3601074 0-.6732407-.2668762-.7216339-.6333885-.0156555-.1181374-.3622437-2.9185715 1.3407898-4.9347382 1.0283661-1.2169609 2.552063-1.8709869 4.5305099-1.9428673.0085373-.0007133.0177917-.0007133.0270462-.0007133.3899918 0 .7130966.3088684.7273254.7024231.014946.4020958-.2989044.740139-.7017059.7543716-1.5500259.0569344-2.7178802.5373154-3.4701157 1.4276161-1.291687 1.5293846-1.012001 3.780407-1.0091553 3.8031807.0526657.3992462-.2277374.765049-.6269836.8177109-.0327377.0042686-.0647582.0064049-.0960769.0064049z" fill="#bccc4b"/></svg>