<?xml version="1.0" encoding="iso-8859-1"?>
<!-- Generator: Adobe Illustrator 19.0.0, SVG Export Plug-In . SVG Version: 6.00 Build 0)  -->
<svg version="1.1" id="Layer_1" xmlns="http://www.w3.org/2000/svg" xmlns:xlink="http://www.w3.org/1999/xlink" x="0px" y="0px"
	 viewBox="0 0 512 512" style="enable-background:new 0 0 512 512;" xml:space="preserve">
<path style="fill:#FEC377;" d="M512,177.342c-27.9-38.719-68.789-74.33-120.925-104.433
	C340.898,43.938,280.304,20.068,210.798,3.411l-19.759,27.841l-0.097,34.165c0.045,0.011,0.089,0.025,0.134,0.037L0.097,333.5
	L0,508.589l511.903-122.948L512,211.598c-0.031-0.044-0.066-0.087-0.097-0.13L512,177.342z"/>
<path style="fill:#FFA834;" d="M391.074,107.164c52.139,30.102,93.025,65.712,120.925,104.433L0.097,333.5l210.7-295.834
	C280.303,54.323,340.896,78.194,391.074,107.164z"/>
<g>
	<polygon style="fill:#FFEB9A;" points="511.999,211.597 511.903,385.639 0,508.589 0.097,333.5 	"/>
	<polygon style="fill:#FFEB9A;" points="511.903,211.508 511.999,177.342 463.982,188.879 463.885,223.044 464.01,223.123 
		0.097,333.5 0.08,508.589 511.903,385.659 511.92,211.616 511.808,211.643 	"/>
</g>
<polygon style="fill:#A66206;" points="511.903,351.385 0.018,474.329 0,508.589 511.903,385.639 511.999,211.597 511.982,211.601 
	"/>
<g style="enable-background:new    ;">
	<g>
		<g>
			<path style="fill:#FF9911;" d="M463.982,188.879l-0.097,34.165c-27.444-34.336-65.292-65.943-112.304-93.085
				c-24.214-13.98-50.859-26.774-79.761-38.143l0.097-34.165c28.902,11.37,55.547,24.165,79.761,38.143
				C398.69,122.935,436.538,154.543,463.982,188.879"/>
			<path style="fill:#FF9911;" d="M271.916,57.65l-0.097,34.165c-21.221-8.348-43.66-15.929-67.244-22.645l0.097-34.165
				C228.258,41.722,250.695,49.301,271.916,57.65"/>
			<path style="fill:#FF9911;" d="M204.672,35.005l-0.097,34.165c-4.503-1.282-9.048-2.533-13.634-3.752l0.097-34.165
				C195.624,32.472,200.169,33.723,204.672,35.005"/>
		</g>
	</g>
</g>
<path style="fill:#FFA834;" d="M391.074,72.909c52.137,30.103,93.025,65.713,120.925,104.433l-48.017,11.537
	c-27.444-34.336-65.292-65.943-112.304-93.085c-45.388-26.203-99.317-48.245-160.639-64.541l19.759-27.841
	C280.303,20.069,340.898,43.939,391.074,72.909z"/>
<g>
</g>
<g>
</g>
<g>
</g>
<g>
</g>
<g>
</g>
<g>
</g>
<g>
</g>
<g>
</g>
<g>
</g>
<g>
</g>
<g>
</g>
<g>
</g>
<g>
</g>
<g>
</g>
<g>
</g>
</svg>
